<?xml version="1.0" encoding="UTF-8"?>
<svg id="Layer_2" data-name="Layer 2" xmlns="http://www.w3.org/2000/svg" viewBox="0 0 232 232">
  <defs>
    <style>
      .cls-1, .cls-2 {
        opacity: .1;
      }

      .cls-1, .cls-2, .cls-3, .cls-4, .cls-5, .cls-6 {
        stroke-width: 0px;
      }

      .cls-1, .cls-4 {
        fill: #29abe2;
      }

      .cls-2, .cls-5 {
        fill: #ed1e79;
      }

      .cls-7 {
        stroke-width: 10px;
      }

      .cls-7, .cls-8, .cls-9 {
        stroke: #000;
        stroke-miterlimit: 10;
      }

      .cls-7, .cls-9 {
        fill: none;
      }

      .cls-8 {
        fill: #fff;
        font-family: Courier-Bold, Courier;
        font-size: 64px;
        font-weight: 700;
      }

      .cls-6 {
        fill: #0071bc;
      }
    </style>
  </defs>
  <g id="Layer_1-2" data-name="Layer 1">
    <path class="cls-7" d="m205.75,147c0,38.11-40.29,69-90,69s-90-30.89-90-69"/>
    <path class="cls-7" d="m20.75,147l190-1-190,1Z"/>
    <path class="cls-5" d="m83.9,96.17c2.35,0,4.61-2.07,4.5-4.5s-1.98-4.5-4.5-4.5c-2.35,0-4.61,2.07-4.5,4.5s1.98,4.5,4.5,4.5h0Z"/>
    <path class="cls-5" d="m115.37,85.72c2.35,0,4.61-2.07,4.5-4.5s-1.98-4.5-4.5-4.5c-2.35,0-4.61,2.07-4.5,4.5s1.98,4.5,4.5,4.5h0Z"/>
    <path class="cls-5" d="m119.14,129.4c2.35,0,4.61-2.07,4.5-4.5s-1.98-4.5-4.5-4.5c-2.35,0-4.61,2.07-4.5,4.5s1.98,4.5,4.5,4.5h0Z"/>
    <path class="cls-5" d="m96.08,135.76c2.35,0,4.61-2.07,4.5-4.5s-1.98-4.5-4.5-4.5c-2.35,0-4.61,2.07-4.5,4.5s1.98,4.5,4.5,4.5h0Z"/>
    <path class="cls-5" d="m107.03,108.48c2.35,0,4.61-2.07,4.5-4.5s-1.98-4.5-4.5-4.5c-2.35,0-4.61,2.07-4.5,4.5s1.98,4.5,4.5,4.5h0Z"/>
    <path class="cls-4" d="m178.43,110.98c2.35,0,4.61-2.07,4.5-4.5s-1.98-4.5-4.5-4.5c-2.35,0-4.61,2.07-4.5,4.5s1.98,4.5,4.5,4.5h0Z"/>
    <path class="cls-4" d="m171.09,80.38c2.35,0,4.61-2.07,4.5-4.5s-1.98-4.5-4.5-4.5c-2.35,0-4.61,2.07-4.5,4.5s1.98,4.5,4.5,4.5h0Z"/>
    <path class="cls-4" d="m190.23,94.36c2.35,0,4.61-2.07,4.5-4.5s-1.98-4.5-4.5-4.5c-2.35,0-4.61,2.07-4.5,4.5s1.98,4.5,4.5,4.5h0Z"/>
    <path class="cls-4" d="m153.08,103.69c2.35,0,4.61-2.07,4.5-4.5s-1.98-4.5-4.5-4.5c-2.35,0-4.61,2.07-4.5,4.5s1.98,4.5,4.5,4.5h0Z"/>
    <path class="cls-4" d="m160.1,128.71c2.35,0,4.61-2.07,4.5-4.5s-1.98-4.5-4.5-4.5c-2.35,0-4.61,2.07-4.5,4.5s1.98,4.5,4.5,4.5h0Z"/>
    <path class="cls-6" d="m133.81,81.51c.63,1.33.22,2.73-.56,3.89-1.09,1.64-2.23,3.02-2.98,4.87-1.49,3.69-1.34,8.07-.23,11.85s3.33,7.45,5.71,10.77c1.07,1.5,2.3,3.02,2.78,4.83s.14,3.55-.35,5.24c-1.16,4.01-3.36,7.8-6.13,10.91-1.08,1.21-1.19,3.05,0,4.24,1.1,1.1,3.16,1.21,4.24,0,2.93-3.28,5.16-6.97,6.8-11.05,1.79-4.45,2.36-9.25.14-13.65-.96-1.9-2.35-3.55-3.54-5.3s-2.38-3.64-3.2-5.63c-1.33-3.21-1.95-7.16-.51-10.43.91-2.08,2.7-3.59,3.52-5.75.98-2.58.64-5.37-.52-7.82-.7-1.46-2.79-1.85-4.1-1.08-1.5.88-1.78,2.64-1.08,4.1h0Z"/>
    <path class="cls-3" d="m34.15,161.79c27.12.53,54.24.59,81.36.13,13.23-.22,26.45-.56,39.68-1.02,6.94-.24,13.88-.52,20.82-.82,3.3-.15,6.61-.3,9.91-.46,1.65-.08,3.3-.16,4.96-.25l1.98-.1c3,.32,2.79-.53-.64-2.56l.6-4.59c.07-.13-6.78.32-7.35.38-2.93.31-5.87.61-8.81.88-5.87.55-11.75,1.02-17.64,1.42-11.44.78-22.91,1.3-34.37,1.61-23.28.63-46.58.38-69.86-.31-7.05-.21-24.61-4.15-25.43,6.98-.8,10.82,14.63,8.96,21.13,8.97,23.3.04,46.61-.06,69.91-.29,13.13-.13,26.26-.3,39.38-.51,5.9-.1,11.8-.13,17.69-.55,2.96-.21,5.9-.56,8.84-.96,1.51-.21,3.02-.46,4.55-.57l1.76-.11c2.26.1,2.35,0,.26-.29l-2.74-3.56c-.52-2.49-.5-1.21-2.03-.35-1.12.64-2.38.98-3.64,1.22-2.9.56-6.01.37-8.94.39-6.61.05-13.22.09-19.83.13-12.89.08-25.78.17-38.67.25-12.89.08-25.78.17-38.67.25-6.61.04-13.22.09-19.83.13-5.64.04-12.69-1.05-17.99,1.15-2.69,1.12-5.5,4.05-4.16,7.32,4.49,10.97,19.56,8.33,29.19,8.48,13.49.22,26.98.18,40.47-.08,27.25-.51,54.48-1.88,81.68-3.62l-5.74-4.37c.21.66-11.45,6.95-12.64,7.61-4.91,2.7-9.96,5.18-15.19,7.17-10.69,4.06-21.9,6.37-33.37,5.72-12.18-.69-24-4.32-35.93-6.58-11.32-2.14-23.01-3.66-33.4-8.95-.47,3.63-.95,7.25-1.42,10.88,10.16-1.75,20.5.53,30.6,1.63s20.48.35,30.73-1.06,20.27-3.28,30.54-3.67,21.44.11,32.08-2.02l-7.32-7.32c-1.4,4.35-8.89,3.66-12.41,4.02-5.33.54-9.86,2.46-14.89,4.08-5.42,1.74-11.02,2.37-16.69,2.63-5.25.24-11.26,1.04-16.26-.84.47,3.63.95,7.25,1.42,10.88,5.47-2.38,12.47-1.77,18.3-2.06,1.6-.08,17.05-.18,17.19-.9-.9,4.81,2.69,7.97,7.32,7.32,3.82-.53,7.64-1.07,11.46-1.6l-6.72-2.74c2.2-4.16,1.89-5.52-.91-4.09-1.19.36-2.38.69-3.57,1.02-1.79.48-3.6.94-5.41,1.35-4.3.99-8.66,1.8-13.05,2.35-8.29,1.04-16.69,1.3-25.03.85-16.22-.87-31.87-4.43-43.5-16.45-5.34-5.52-13.75,2.91-8.42,8.42,15.38,15.89,37.07,19.97,58.42,20.14,9.12.07,61.95-1.83,51.74-19.6-1.45-2.53-4.07-3.11-6.72-2.74-3.82.53-7.64,1.07-11.46,1.6l7.32,7.32c.9-4.86-.62-9.54-4.88-12.39s-9.64-2.49-14.6-2.24c-11.03.56-23.21-.33-33.5,4.15-5.2,2.26-2.79,9.3,1.42,10.88,6.3,2.37,13.76,1.57,20.35,1.23,7.52-.4,14.93-1.46,22.01-4.11,3.17-1.19,6.13-2.27,9.53-2.63s6.93-.36,10.29-1.23c6.03-1.57,10.77-5.48,12.7-11.45,1.49-4.61-3.13-8.16-7.32-7.32-10.47,2.09-21.18,1.1-31.77,1.74s-20.77,2.64-31.15,3.99c-10.07,1.31-19.95,1.51-30.04.27-10.45-1.28-20.51-2.69-30.99-.88-5.02.86-5.79,8.66-1.42,10.88,12.81,6.52,26.83,8.17,40.73,11.04s28.72,7.04,43.53,6.1c13.53-.86,26.47-5.01,38.64-10.86,6.26-3.01,12.51-6.41,18.23-10.38,4.81-3.34,8.81-8.11,6.89-14.3-.74-2.37-3.1-4.54-5.74-4.37-24.25,1.55-48.52,2.81-72.82,3.43-11.82.3-23.64.45-35.46.41-6.28-.02-12.56-.1-18.83-.23-2.97-.06-5.95-.12-8.92-.22-1.02-.03-2.13-.19-3.15-.12-1.57.1-1.56-1.43-.69.69l-4.16,7.32c4.44-1.84,11.01-.7,15.81-.73,6.28-.04,12.56-.08,18.84-.12,11.24-.07,22.48-.14,33.72-.22,22.9-.15,46.01.58,68.88-.48,7.75-.36,20.85-3.81,21.08-13.79.25-11.07-15.65-6.54-21.81-5.95-22.33,2.12-45.27,1.17-67.69,1.36-22.97.2-45.95.26-68.92.2-.55,0-3.23-.31-3.94-.01-2.52,1.08-2.63,6.48.38,7.39,2.15.65,5.61.2,7.87.28,5.9.2,11.8.37,17.71.5,11.48.27,22.96.41,34.45.38,22.95-.07,45.9-.83,68.77-2.7,5.55-.45,11.1-.97,16.64-1.56,4.79-.51,10.62-.24,14.73-3.05,3.29-2.25,4.83-6.56,2.72-10.19-2.55-4.41-7.71-3.92-12.04-3.7-52.19,2.66-104.47,3.45-156.72,2.43-7.66-.15-7.66,11.76,0,11.91h0Z"/>
    <text class="cls-8" transform="translate(40.67 190.16)"><tspan x="0" y="0">dpks</tspan></text>
    <path class="cls-9" d="m25,137v-28.24c0-10.41,3.28-22.35,4.69-32.67,1.22-8.91,2.61-18.25,8-25.44,3.89-5.18,9.53-8.76,15.31-11.68,14.77-7.44,31.35-11.25,47.88-10.99,5.58.09,11.31.67,16.29,3.2,12.13,6.15,16.04,21.28,18.67,34.63"/>
    <path class="cls-3" d="m30.17,143.22c-1.64-32.36-3.74-74.21,24.83-96.61,12.96-10.16,33.78-14.83,49.7-10.21,14.76,4.28,25.03,18.34,26.33,33.41.55,6.36,10.56,6.42,10,0-1.17-13.53-7.36-26.3-18.03-34.88-11.82-9.51-26.92-11.46-41.56-9.24-15.18,2.3-29.73,8.54-40.11,20.11-9.52,10.62-15.61,24.1-18.7,37.94-4.37,19.52-3.45,39.65-2.45,59.47.32,6.4,10.33,6.44,10,0h0Z"/>
    <path class="cls-3" d="m133.99,74.24c.7-.04,1.39-.06,2.09-.02.22.01.92-.05,1.04.08l-.64-.09c.23.04.46.07.69.12,1.35.25,2.64.21,3.85-.5,1.04-.61,2.03-1.8,2.3-2.99.56-2.45-.74-5.64-3.49-6.15-1.94-.36-3.88-.57-5.85-.45-2.61.16-5.13,2.18-5,5,.12,2.57,2.2,5.17,5,5h0Z"/>
    <path class="cls-3" d="m132.34,75.67c2.93-.6,5.93-.81,9-.65.78.04,1.53-.72,1.5-1.5-.04-.85-.66-1.46-1.5-1.5-3.28-.17-6.57.1-9.79.76-.77.16-1.29,1.11-1.05,1.85.26.82,1.02,1.22,1.85,1.05h0Z"/>
    <path class="cls-1" d="m232,116c0,64.01-51.84,115.91-115.83,116,6.97-15.22,13.49-30.63,18.48-46.6,7-22.41,10.9-46.11,8.3-69.44-.66-5.94-1.75-11.86-3.86-17.44-3.6-9.55-10.06-17.83-13.55-27.42-3.56-9.82-3.82-20.52-3.14-30.94.66-9.94,2.2-20.01,6.65-28.92,1.72-3.46,3.93-6.73,6.58-9.58,54.72,9.32,96.37,56.96,96.37,114.34Z"/>
    <path class="cls-2" d="m134.65,185.4c-4.99,15.97-11.51,31.38-18.48,46.6h-.17C51.93,232,0,180.07,0,116S51.93,0,116,0c6.69,0,13.25.57,19.63,1.66-2.65,2.85-4.86,6.12-6.58,9.58-4.45,8.91-5.99,18.98-6.65,28.92-.68,10.42-.42,21.12,3.14,30.94,3.49,9.59,9.95,17.87,13.55,27.42,2.11,5.58,3.2,11.5,3.86,17.44,2.6,23.33-1.3,47.03-8.3,69.44Z"/>
  </g>
</svg>