<?xml version="1.0" encoding="utf-8" standalone="no"?>
<!DOCTYPE svg PUBLIC "-//W3C//DTD SVG 1.1//EN"
  "http://www.w3.org/Graphics/SVG/1.1/DTD/svg11.dtd">
<svg xmlns:xlink="http://www.w3.org/1999/xlink" width="532.8pt" height="309.6pt" viewBox="0 0 532.8 309.6" xmlns="http://www.w3.org/2000/svg" version="1.1">
 <title>A simple house-price model</title>
 <metadata>
  <rdf:RDF xmlns:dc="http://purl.org/dc/elements/1.1/" xmlns:cc="http://creativecommons.org/ns#" xmlns:rdf="http://www.w3.org/1999/02/22-rdf-syntax-ns#">
   <cc:Work>
    <dc:type rdf:resource="http://purl.org/dc/dcmitype/StillImage"/>
    <dc:title>A simple house-price model</dc:title>
    <dc:description>Illustrative predictions, not sale data: price equals rooms times 50,000. One to six rooms gives 50,000 to 300,000. Four rooms gives 200,000. No currency is specified.</dc:description>
    <dc:format>image/svg+xml</dc:format>
    <dc:creator>
     <cc:Agent>
      <dc:title>Matplotlib v3.10.0, https://matplotlib.org/</dc:title>
     </cc:Agent>
    </dc:creator>
   </cc:Work>
  </rdf:RDF>
 </metadata>
 <defs>
  <style type="text/css">*{stroke-linejoin: round; stroke-linecap: butt}</style>
 </defs>
 <g id="figure_1">
  <g id="patch_1">
   <path d="M 0 309.6 
L 532.8 309.6 
L 532.8 0 
L 0 0 
z
" style="fill: #ffffff"/>
  </g>
  <g id="axes_1">
   <g id="patch_2">
    <path d="M 101.232 250.776 
L 511.488 250.776 
L 511.488 43.344 
L 101.232 43.344 
z
" style="fill: #ffffff"/>
   </g>
   <g id="matplotlib.axis_1">
    <g id="xtick_1">
     <g id="line2d_1">
      <defs>
       <path id="m30a68c3948" d="M 0 0 
L 0 4 
" style="stroke: #000000; stroke-width: 0.8"/>
      </defs>
      <g>
       <use xlink:href="#m30a68c3948" x="136.598897" y="250.776" style="stroke: #000000; stroke-width: 0.8"/>
      </g>
     </g>
     <g id="text_1">
      <text style="font-size: 14px; font-family: 'Arial', 'DejaVu Sans', sans-serif; text-anchor: middle" x="136.598897" y="271.796937" transform="rotate(-0 136.598897 271.796937)">1</text>
     </g>
    </g>
    <g id="xtick_2">
     <g id="line2d_2">
      <g>
       <use xlink:href="#m30a68c3948" x="207.33269" y="250.776" style="stroke: #000000; stroke-width: 0.8"/>
      </g>
     </g>
     <g id="text_2">
      <text style="font-size: 14px; font-family: 'Arial', 'DejaVu Sans', sans-serif; text-anchor: middle" x="207.33269" y="271.796937" transform="rotate(-0 207.33269 271.796937)">2</text>
     </g>
    </g>
    <g id="xtick_3">
     <g id="line2d_3">
      <g>
       <use xlink:href="#m30a68c3948" x="278.066483" y="250.776" style="stroke: #000000; stroke-width: 0.8"/>
      </g>
     </g>
     <g id="text_3">
      <text style="font-size: 14px; font-family: 'Arial', 'DejaVu Sans', sans-serif; text-anchor: middle" x="278.066483" y="271.796937" transform="rotate(-0 278.066483 271.796937)">3</text>
     </g>
    </g>
    <g id="xtick_4">
     <g id="line2d_4">
      <g>
       <use xlink:href="#m30a68c3948" x="348.800276" y="250.776" style="stroke: #000000; stroke-width: 0.8"/>
      </g>
     </g>
     <g id="text_4">
      <text style="font-size: 14px; font-family: 'Arial', 'DejaVu Sans', sans-serif; text-anchor: middle" x="348.800276" y="271.796937" transform="rotate(-0 348.800276 271.796937)">4</text>
     </g>
    </g>
    <g id="xtick_5">
     <g id="line2d_5">
      <g>
       <use xlink:href="#m30a68c3948" x="419.534069" y="250.776" style="stroke: #000000; stroke-width: 0.8"/>
      </g>
     </g>
     <g id="text_5">
      <text style="font-size: 14px; font-family: 'Arial', 'DejaVu Sans', sans-serif; text-anchor: middle" x="419.534069" y="271.796937" transform="rotate(-0 419.534069 271.796937)">5</text>
     </g>
    </g>
    <g id="xtick_6">
     <g id="line2d_6">
      <g>
       <use xlink:href="#m30a68c3948" x="490.267862" y="250.776" style="stroke: #000000; stroke-width: 0.8"/>
      </g>
     </g>
     <g id="text_6">
      <text style="font-size: 14px; font-family: 'Arial', 'DejaVu Sans', sans-serif; text-anchor: middle" x="490.267862" y="271.796937" transform="rotate(-0 490.267862 271.796937)">6</text>
     </g>
    </g>
    <g id="text_7">
     <text style="font-size: 14px; font-family: 'Arial', 'DejaVu Sans', sans-serif; text-anchor: middle" x="306.36" y="296.600375" transform="rotate(-0 306.36 296.600375)">Number of rooms</text>
    </g>
   </g>
   <g id="matplotlib.axis_2">
    <g id="ytick_1">
     <g id="line2d_7">
      <defs>
       <path id="m096c2cb0d4" d="M 0 0 
L -4 0 
" style="stroke: #000000; stroke-width: 0.8"/>
      </defs>
      <g>
       <use xlink:href="#m096c2cb0d4" x="101.232" y="250.776" style="stroke: #000000; stroke-width: 0.8"/>
      </g>
     </g>
     <g id="text_8">
      <text style="font-size: 14px; font-family: 'Arial', 'DejaVu Sans', sans-serif; text-anchor: end" x="90.232" y="255.786469" transform="rotate(-0 90.232 255.786469)">0</text>
     </g>
    </g>
    <g id="ytick_2">
     <g id="line2d_8">
      <g>
       <use xlink:href="#m096c2cb0d4" x="101.232" y="187.917818" style="stroke: #000000; stroke-width: 0.8"/>
      </g>
     </g>
     <g id="text_9">
      <text style="font-size: 14px; font-family: 'Arial', 'DejaVu Sans', sans-serif; text-anchor: end" x="90.232" y="192.928287" transform="rotate(-0 90.232 192.928287)">100,000</text>
     </g>
    </g>
    <g id="ytick_3">
     <g id="line2d_9">
      <g>
       <use xlink:href="#m096c2cb0d4" x="101.232" y="125.059636" style="stroke: #000000; stroke-width: 0.8"/>
      </g>
     </g>
     <g id="text_10">
      <text style="font-size: 14px; font-family: 'Arial', 'DejaVu Sans', sans-serif; text-anchor: end" x="90.232" y="130.070105" transform="rotate(-0 90.232 130.070105)">200,000</text>
     </g>
    </g>
    <g id="ytick_4">
     <g id="line2d_10">
      <g>
       <use xlink:href="#m096c2cb0d4" x="101.232" y="62.201455" style="stroke: #000000; stroke-width: 0.8"/>
      </g>
     </g>
     <g id="text_11">
      <text style="font-size: 14px; font-family: 'Arial', 'DejaVu Sans', sans-serif; text-anchor: end" x="90.232" y="67.211923" transform="rotate(-0 90.232 67.211923)">300,000</text>
     </g>
    </g>
   </g>
   <g id="line2d_11">
    <path d="M 348.800276 250.776 
L 348.800276 125.059636 
" clip-path="url(#pd63314e4b3)" style="fill: none; stroke-dasharray: 4,4; stroke-dashoffset: 0; stroke: #777777"/>
   </g>
   <g id="line2d_12">
    <path d="M 101.232 125.059636 
L 348.800276 125.059636 
" clip-path="url(#pd63314e4b3)" style="fill: none; stroke-dasharray: 4,4; stroke-dashoffset: 0; stroke: #777777"/>
   </g>
   <g id="patch_3">
    <path d="M 101.232 250.776 
L 101.232 43.344 
" style="fill: none; stroke: #000000; stroke-width: 0.8; stroke-linejoin: miter; stroke-linecap: square"/>
   </g>
   <g id="patch_4">
    <path d="M 101.232 250.776 
L 511.488 250.776 
" style="fill: none; stroke: #000000; stroke-width: 0.8; stroke-linejoin: miter; stroke-linecap: square"/>
   </g>
   <g id="line2d_13">
    <path d="M 136.598897 219.346909 
L 207.33269 187.917818 
L 278.066483 156.488727 
L 348.800276 125.059636 
L 419.534069 93.630545 
L 490.267862 62.201455 
" clip-path="url(#pd63314e4b3)" style="fill: none; stroke: #000000; stroke-width: 1.5; stroke-linecap: square"/>
   </g>
   <g id="text_12">
    <text style="font-size: 14px; font-family: 'Arial', 'DejaVu Sans', sans-serif; text-anchor: start" x="101.232" y="30.344" transform="rotate(-0 101.232 30.344)">Predicted price</text>
   </g>
   <g id="PathCollection_1">
    <defs>
     <path id="m638e4b6ec0" d="M 0 2.95804 
C 0.784481 2.95804 1.536938 2.646362 2.09165 2.09165 
C 2.646362 1.536938 2.95804 0.784481 2.95804 0 
C 2.95804 -0.784481 2.646362 -1.536938 2.09165 -2.09165 
C 1.536938 -2.646362 0.784481 -2.95804 0 -2.95804 
C -0.784481 -2.95804 -1.536938 -2.646362 -2.09165 -2.09165 
C -2.646362 -1.536938 -2.95804 -0.784481 -2.95804 0 
C -2.95804 0.784481 -2.646362 1.536938 -2.09165 2.09165 
C -1.536938 2.646362 -0.784481 2.95804 0 2.95804 
z
" style="stroke: #000000; stroke-width: 1.3"/>
    </defs>
    <g clip-path="url(#pd63314e4b3)">
     <use xlink:href="#m638e4b6ec0" x="136.598897" y="219.346909" style="fill: #ffffff; stroke: #000000; stroke-width: 1.3"/>
     <use xlink:href="#m638e4b6ec0" x="207.33269" y="187.917818" style="fill: #ffffff; stroke: #000000; stroke-width: 1.3"/>
     <use xlink:href="#m638e4b6ec0" x="278.066483" y="156.488727" style="fill: #ffffff; stroke: #000000; stroke-width: 1.3"/>
     <use xlink:href="#m638e4b6ec0" x="348.800276" y="125.059636" style="fill: #ffffff; stroke: #000000; stroke-width: 1.3"/>
     <use xlink:href="#m638e4b6ec0" x="419.534069" y="93.630545" style="fill: #ffffff; stroke: #000000; stroke-width: 1.3"/>
     <use xlink:href="#m638e4b6ec0" x="490.267862" y="62.201455" style="fill: #ffffff; stroke: #000000; stroke-width: 1.3"/>
    </g>
   </g>
   <g id="PathCollection_2">
    <defs>
     <path id="m650b6eb2d6" d="M 0 3.464102 
C 0.91869 3.464102 1.799877 3.099102 2.44949 2.44949 
C 3.099102 1.799877 3.464102 0.91869 3.464102 0 
C 3.464102 -0.91869 3.099102 -1.799877 2.44949 -2.44949 
C 1.799877 -3.099102 0.91869 -3.464102 0 -3.464102 
C -0.91869 -3.464102 -1.799877 -3.099102 -2.44949 -2.44949 
C -3.099102 -1.799877 -3.464102 -0.91869 -3.464102 0 
C -3.464102 0.91869 -3.099102 1.799877 -2.44949 2.44949 
C -1.799877 3.099102 -0.91869 3.464102 0 3.464102 
z
" style="stroke: #000000"/>
    </defs>
    <g clip-path="url(#pd63314e4b3)">
     <use xlink:href="#m650b6eb2d6" x="348.800276" y="125.059636" style="stroke: #000000"/>
    </g>
   </g>
   <g id="patch_5">
    <path d="M 198.203492 98.739283 
Q 269.560943 111.210687 340.918395 123.682091 
" style="fill: none; stroke: #777777; stroke-linecap: round"/>
   </g>
   <g id="text_13">
    <g id="patch_6">
     <path d="M 141.712276 109.396077 
L 196.233526 109.396077 
L 196.233526 77.865014 
L 141.712276 77.865014 
z
" style="fill: #ffffff"/>
    </g>
    <text style="font-size: 14px; font-family: 'Arial', 'DejaVu Sans', sans-serif" transform="translate(143.672276 89.845952)">4 rooms</text>
    <text style="font-size: 14px; font-family: 'Arial', 'DejaVu Sans', sans-serif" transform="translate(143.672276 104.653577)">200,000</text>
   </g>
  </g>
 </g>
 <defs>
  <clipPath id="pd63314e4b3">
   <rect x="101.232" y="43.344" width="410.256" height="207.432"/>
  </clipPath>
 </defs>
</svg>
